<?xml version="1.0" encoding="UTF-8"?>
<svg id="Layer_1" data-name="Layer 1" xmlns="http://www.w3.org/2000/svg" viewBox="0 0 205.42 197.42">
  <defs>
    <style>
      .cls-1 {
        fill: none;
        stroke: #000;
        stroke-miterlimit: 10;
        stroke-width: 7px;
      }
    </style>
  </defs>
  <path d="M3.42,127.34c-1.55-.06-1.51.21-2,0-2.25-.95-1.5-5.97,0-16,.07-.47.23-1.47,1-2,1.04-.72,2.58-.15,3,0,4.28,1.58,4.45,8.25,7,16,.13.38.43,1.29,0,2-.57.94-2.1.98-3,1-2.42.06-3.11-.89-6-1Z"/>
  <path d="M7.42,174.34c-.68-1.38-.67-3.39,10-17,.58-.74,1.66-2.08,3-2,1.4.08,2.55,1.68,3,3,.53,1.57-.03,2.46,0,4,.04,2.54,1.63,4.4,3,6,5.69,6.66,34.89,18.16,40,25,.4.54,1.49,1.99,1,3-.57,1.19-3.05,1.16-5,1-19.74-1.66-53-21-53-21-.45-.26-1.43-.85-2-2Z"/>
  <path d="M155.42,184.34c-.88-4.39,6.01-7.41,16-15,.49-.37,1.74-1.32,3-1,1.09.28,1.69,1.38,2,2,3.97,7.88,4,22.24,4,23,0,.76-.03,2.23-1,3-1.14.89-2.95.34-4,0-9.36-3-14.12-4.59-18-9-1.21-1.37-1.81-2.07-2-3Z"/>
  <path d="M185.42,68.34c8.3,2.81,14.56,17.31,19,24,.27.41,1.03,1.53,1,3-.04,2.02-1.51,3.49-2,4-5.24,5.5-4.73,13.47-12,18-2.64,1.65-3.68,1.19-4,1-1.02-.61-1.09-2.34-1-4,.48-8.64,5.27-12.41,4-18-.2-.88-.2-.25-2-4-2.19-4.56-3.49-9.44-6-19-.49-1.86-1.05-4.11,0-5,.24-.2.98-.68,3,0Z"/>
  <path d="M153.42,7.34c3-2,4.12-4.35,10-6,2.69-.75,3.57-.33,4,0,.82.65.91,1.75,1,3,.4,5.72.4,7.28,0,13-.09,1.25-.18,2.35-1,3-1.15.91-3,.33-4,0-3.87-1.27-5.15-3.16-11-9-.34-.34-1.2-1.19-1-2,.14-.58,1.79-1.86,2-2Z"/>
  <path d="M10.42,63.34c-2.98-6.06,2.92-19.62,3-25,0-.44,0-1.95,1-3,.76-.79,1.76-.95,2-1,2.53-.49,21.13-7.21,31-18,4.44-4.85,8.22-11.74,14-15,1.05-.59,3.59-1.99,5-1,.76.53.97,1.61,1,3,.16,7.2-4.56,12.16-6,17-.09.31-.33,1.15-1,2-1.09,1.38-2.59,1.86-3,2-2.71.94-11.81,7.29-30,20-3.32,2.32-3.61,2.58-4,3-5.21,5.64-3.55,13.56-8,17-.45.35-1.72,1.33-3,1-1.14-.29-1.75-1.48-2-2Z"/>
  <polygon class="cls-1" points="26.42 99.34 37.36 61.21 67.43 36.19 105.42 26.34 145.42 42.34 167.51 67.99 174.66 103.37 163.42 142.34 134.42 166.34 94.42 175.34 56.42 161.34 33.42 132.34 26.42 99.34"/>
  <polygon points="32.92 99.84 43.42 86.34 39.42 120.34 32.92 99.84"/>
  <polygon points="40.42 84.34 43.42 64.63 63.42 50.34 40.42 84.34"/>
  <polyline points="48.42 80.34 70.42 46.34 81.42 66.34"/>
  <polyline points="73.42 44.34 111.82 46.34 85.87 65.41"/>
  <polyline points="78.42 40.34 105.42 34.34 113.66 44.34"/>
  <polyline points="111.82 35 118.01 44.34 135.08 44.34"/>
  <polyline points="140.61 46.34 118.51 46.34 155.34 65.41"/>
  <polyline points="159.42 72.34 168.42 102.34 157.42 113.34"/>
  <polyline points="120.69 50.34 124.42 88.34 158.42 70.34"/>
  <polyline points="116.42 49.34 88.21 67.99 120.69 86.34"/>
  <polyline points="86.42 70.34 79.42 112.34 119.42 90.34"/>
  <polyline points="82.19 70.34 76.42 110.34 48.42 85.05"/>
  <polyline points="47.03 88.34 41.42 129.34 74.49 113.34"/>
  <polyline points="76.42 116.34 80.42 154.34 44.42 133.34"/>
  <polyline points="80.42 116.34 86.04 154.34 113.66 135.34"/>
  <polyline points="116.42 132.34 122.42 93.34 82.19 113.34"/>
  <polyline points="120.42 131.34 126.42 95.34 152.42 118.34"/>
  <polyline points="154.42 114.34 156.42 76.34 127.22 90.34"/>
  <polyline points="164.88 112.34 161.36 131.34 155.34 121.84"/>
  <polyline points="153.42 123.34 131.42 157.34 120.42 134.6"/>
  <polyline points="154.33 128.35 158.42 136.11 141.82 149.83"/>
  <polyline points="127.22 158.2 117.42 137.34 90.72 155.34"/>
  <polyline points="120.69 161.55 89.42 160.34 95.42 169.34"/>
  <polyline points="88.21 164.84 48.42 139.09 59.42 156.34"/>
</svg>